<?xml version="1.0" encoding="UTF-8" standalone="no"?><!DOCTYPE svg PUBLIC "-//W3C//DTD SVG 1.1//EN" "http://www.w3.org/Graphics/SVG/1.1/DTD/svg11.dtd"><svg width="100%" height="100%" viewBox="0 0 16484 16817" version="1.1" xmlns="http://www.w3.org/2000/svg" xmlns:xlink="http://www.w3.org/1999/xlink" xml:space="preserve" xmlns:serif="http://www.serif.com/" style="fill-rule:evenodd;clip-rule:evenodd;stroke-linejoin:round;stroke-miterlimit:2;"><rect id="Smiley_no_border" x="0.619" y="0" width="16482.1" height="16814.6" style="fill:none;"/><g id="Smiley-logo-OG" serif:id="Smiley logo OG"><path d="M7667.77,481.726c1272.43,-126.053 2628.32,-167.573 5816.52,2170.29c2597.05,1904.38 2499.06,4103.64 2524.34,5787.81c1.535,102.118 202.105,3037.27 -1437.65,4911.06c-406.294,464.283 -1781.73,1429.9 -3151.85,2135.77c-953.627,491.296 -1907.82,848.39 -2539.5,884.434c-938.105,53.475 -1556.47,-139.498 -2287.57,-460.276c-616.128,-270.332 -1327.88,-643.901 -2504.05,-1004.65c-910.41,-279.24 -1922.47,-535.101 -2686.72,-2191.59c-649.898,-1408.64 -935.104,-4093.34 -935.104,-4411.67c-0,-1221.26 599.5,-2282.92 1346.94,-3639.2c621.51,-1127.77 894,-1726.94 1094.33,-2092.6c270.948,-494.545 447.419,-670.508 897.489,-932.557c419.726,-244.382 2533.02,-1025.02 3862.82,-1156.82Zm-357.128,6120.57l-544.003,-303.838c-2.636,-1.472 -4.27,-4.256 -4.27,-7.275c0,-3.02 1.634,-5.803 4.27,-7.276l544.033,-303.859c7.501,-4.19 11.66,-12.555 10.472,-21.065c-89.503,-635.838 -430.199,-1109.61 -836.321,-1109.61c-474.249,-0 -859.28,646.052 -859.28,1441.81c-0,795.755 385.031,1441.81 859.28,1441.81c406.115,-0 746.805,-473.752 836.323,-1109.57c1.191,-8.534 -2.981,-16.923 -10.504,-21.123Zm3540.62,0.017l-544.035,-303.855c-2.636,-1.472 -4.27,-4.256 -4.27,-7.275c0,-3.02 1.634,-5.803 4.27,-7.276l544.033,-303.859c7.501,-4.19 11.66,-12.555 10.472,-21.065c-89.503,-635.838 -430.199,-1109.61 -836.321,-1109.61c-474.249,-0 -859.28,646.052 -859.28,1441.81c-0,795.755 385.031,1441.81 859.28,1441.81c406.122,-0 746.818,-473.769 836.328,-1109.61c1.188,-8.512 -2.973,-16.88 -10.477,-21.07Zm2438.95,1741.5c-178.6,1.107 -326.956,138.543 -341.468,316.797c-204.929,2418.55 -2235.67,4320.43 -4707.09,4320.43c-2480.52,0 -4517.11,-1915.92 -4708.53,-4347.45c-11.812,-163.493 -147.903,-290.145 -311.87,-290.148c-6.217,0 -12.431,0.198 -18.656,0.928c-86.85,1.255 -169.88,38.057 -229.438,101.999c-60.628,65.091 -91.479,152.45 -85.172,241.179l0.042,0.556c219.942,2762.88 2534.59,4939.54 5353.63,4939.54c2825.04,-0 5143.54,-2185.94 5355.76,-4957.15l0.04,-0.551c5.759,-84.496 -23.793,-167.595 -81.608,-229.483c-57.815,-61.887 -138.713,-97.018 -223.404,-97.016l-2.238,0.372Zm67.508,74.505l-0.073,-0.02c0.213,-1.613 0.367,-3.244 0.462,-4.893c-0.099,1.723 -0.23,3.36 -0.389,4.913Z" style="fill:#fee440;"/></g></svg>