<?xml version="1.0" encoding="UTF-8" standalone="no"?><!DOCTYPE svg PUBLIC "-//W3C//DTD SVG 1.1//EN" "http://www.w3.org/Graphics/SVG/1.1/DTD/svg11.dtd"><svg width="100%" height="100%" viewBox="0 0 16488 16817" version="1.1" xmlns="http://www.w3.org/2000/svg" xmlns:xlink="http://www.w3.org/1999/xlink" xml:space="preserve" xmlns:serif="http://www.serif.com/" style="fill-rule:evenodd;clip-rule:evenodd;stroke-linejoin:round;stroke-miterlimit:2;"><rect id="tf-logo-no-border" x="3.646" y="0.552" width="16482.1" height="16814.6" style="fill:none;"/><g id="Smiley-logo-OG" serif:id="Smiley logo OG"><g><path d="M7691.6,769.513c1226.32,-121.484 2533.06,-161.499 5605.72,2091.64c2502.93,1835.37 2408.49,3954.92 2432.85,5578.05c1.479,98.417 194.779,2927.2 -1385.55,4733.08c-391.569,447.457 -1717.15,1378.08 -3037.62,2058.37c-919.065,473.491 -1838.68,817.643 -2447.46,852.38c-904.107,51.537 -1500.06,-134.442 -2204.67,-443.595c-593.798,-260.534 -1279.75,-620.564 -2413.3,-968.244c-877.415,-269.119 -1852.8,-515.708 -2589.35,-2112.17c-626.345,-1357.58 -901.214,-3944.99 -901.214,-4251.78c-0,-1177 577.773,-2200.18 1298.13,-3507.31c598.985,-1086.89 861.6,-1664.35 1054.67,-2016.76c261.128,-476.622 431.204,-646.208 864.962,-898.76c404.514,-235.525 2441.22,-987.867 3722.82,-1114.9Zm-532.392,6361.57l-606.064,-252.492c-31.056,-12.938 -51.285,-43.282 -51.285,-76.925c-0,-33.643 20.229,-63.986 51.285,-76.924c192.157,-80.055 482.005,-200.809 606.031,-252.571c35.443,-14.766 56.189,-51.856 50.222,-89.784c-110.008,-683.413 -482.355,-1186.88 -924.23,-1186.88c-528.31,0 -957.23,719.696 -957.23,1606.16c-0,886.464 428.92,1606.16 957.23,1606.16c441.875,0 814.222,-503.466 924.318,-1186.87c5.973,-37.969 -14.797,-75.097 -50.277,-89.877Zm3944.18,0l-606.063,-252.492c-31.056,-12.938 -51.286,-43.282 -51.286,-76.925c-0,-33.643 20.23,-63.986 51.286,-76.924c192.157,-80.055 482.005,-200.809 606.031,-252.571c35.442,-14.766 56.189,-51.856 50.222,-89.784c-110.009,-683.413 -482.356,-1186.88 -924.231,-1186.88c-528.309,0 -957.23,719.696 -957.23,1606.16c0,886.464 428.921,1606.16 957.23,1606.16c441.875,0 814.222,-503.466 924.319,-1186.87c5.972,-37.969 -14.797,-75.097 -50.278,-89.877Zm2006.88,1215.59c-172.127,1.067 -315.107,133.521 -329.093,305.315c-197.501,2330.9 -2154.64,4163.85 -4536.49,4163.85c-2390.62,0 -4353.4,-1846.48 -4537.89,-4189.9c-11.384,-157.567 -142.543,-279.629 -300.567,-279.632c-5.992,0 -11.981,0.191 -17.981,0.894c-83.701,1.209 -163.723,36.678 -221.122,98.302c-58.431,62.732 -88.164,146.925 -82.085,232.439l0.04,0.536c211.971,2662.75 2442.73,4760.52 5159.6,4760.52c2722.66,-0 4957.13,-2106.72 5161.66,-4777.49l0.039,-0.531c5.55,-81.434 -22.931,-161.521 -78.651,-221.166c-55.72,-59.644 -133.685,-93.502 -215.307,-93.5l-2.157,0.359Zm65.061,71.804l-0.07,-0.019c0.205,-1.554 0.354,-3.127 0.445,-4.716c-0.095,1.661 -0.222,3.238 -0.375,4.735Z" style="fill:#fee440;"/></g></g></svg>