<?xml version="1.0" encoding="UTF-8" standalone="no"?>
<!DOCTYPE svg PUBLIC "-//W3C//DTD SVG 1.1//EN" "http://www.w3.org/Graphics/SVG/1.1/DTD/svg11.dtd">
<svg width="100%" height="100%" viewBox="0 0 3957 4036" version="1.1" xmlns="http://www.w3.org/2000/svg" xmlns:xlink="http://www.w3.org/1999/xlink" xml:space="preserve" xmlns:serif="http://www.serif.com/" style="fill-rule:evenodd;clip-rule:evenodd;stroke-linejoin:round;stroke-miterlimit:2;">
    <g transform="matrix(1,0,0,1,-6240,-4885)">
        <g id="tf-smiley-logo-transparent-coloured" transform="matrix(1.40298,0,0,1.86828,331.488,4885.22)">
            <rect x="4212.02" y="0" width="2819.49" height="2160" style="fill:none;"/>
            <g transform="matrix(8.01383,0,0,5.76494,-8122.28,-9724.66)">
                <g id="Smiley-logo-coloured">
                    <path d="M1702.57,1694.39C1730.22,1691.53 1759.69,1690.59 1828.98,1743.63C1885.43,1786.83 1883.3,1836.73 1883.85,1874.94C1883.88,1877.26 1888.24,1943.85 1852.6,1986.36C1843.77,1996.89 1813.88,2018.8 1784.1,2034.82C1763.37,2045.96 1742.63,2054.06 1728.91,2054.88C1708.52,2056.1 1695.08,2051.72 1679.19,2044.44C1665.8,2038.31 1650.33,2029.83 1624.77,2021.65C1604.98,2015.31 1582.98,2009.51 1566.37,1971.92C1552.25,1939.97 1546.05,1879.06 1546.05,1871.83C1546.05,1844.13 1559.08,1820.04 1575.33,1789.27C1588.83,1763.68 1594.76,1750.09 1599.11,1741.79C1605,1730.57 1608.83,1726.58 1618.62,1720.63C1627.74,1715.09 1673.67,1697.38 1702.57,1694.39ZM1715.07,1999.12C1754.17,1999.12 1827.76,1947.84 1832.38,1887.27L1832.38,1887.26C1832.6,1884.02 1844.87,1883.81 1844.84,1881.79C1844.78,1877.49 1835.13,1872.18 1823.4,1872.01C1813.15,1872.01 1805.13,1876.9 1803.15,1879.47C1800.05,1883.51 1807.72,1881.39 1813.62,1883C1816.47,1883.79 1818.34,1886.63 1818.03,1889.69C1812.17,1941.63 1756.51,1983.36 1715.04,1983.36C1673.57,1983.36 1617.97,1941.62 1612.12,1889.69C1611.8,1886.63 1613.67,1883.79 1616.52,1883C1622.42,1881.39 1630.09,1883.51 1626.99,1879.47C1625.01,1876.9 1616.99,1872.01 1606.74,1872.01C1595.01,1872.18 1585.36,1877.49 1585.3,1881.79C1585.28,1883.81 1597.54,1884.02 1597.76,1887.26L1597.76,1887.27C1602.38,1947.84 1675.97,1999.12 1715.07,1999.12ZM1694.81,1833.25L1682.98,1826.35C1682.92,1826.32 1682.89,1826.26 1682.89,1826.19C1682.89,1826.12 1682.92,1826.06 1682.98,1826.03L1694.81,1819.13C1694.97,1819.04 1695.06,1818.85 1695.04,1818.66C1693.09,1804.23 1685.69,1793.48 1676.86,1793.48C1666.55,1793.48 1658.18,1808.14 1658.18,1826.19C1658.18,1844.25 1666.55,1858.9 1676.86,1858.9C1685.69,1858.9 1693.09,1848.15 1695.04,1833.72C1695.06,1833.53 1694.97,1833.35 1694.81,1833.25ZM1771.76,1833.25L1759.93,1826.35C1759.87,1826.32 1759.84,1826.26 1759.84,1826.19C1759.84,1826.12 1759.87,1826.06 1759.93,1826.03L1771.76,1819.13C1771.92,1819.04 1772.01,1818.85 1771.99,1818.66C1770.04,1804.23 1762.64,1793.48 1753.81,1793.48C1743.5,1793.48 1735.13,1808.14 1735.13,1826.19C1735.13,1844.25 1743.5,1858.9 1753.81,1858.9C1762.64,1858.9 1770.04,1848.15 1771.99,1833.72C1772.01,1833.53 1771.92,1833.35 1771.76,1833.25Z" style="fill:rgb(254,228,64);"/>
                </g>
            </g>
        </g>
    </g>
</svg>
